Release Info:

General

Format                                   : Matroska
Format version                           : Version 2
File size                                : 701 MiB
Duration                                 : 2h 17mn
Overall bit rate                         : 714 Kbps

Video
ID                                       : 1
Format                                   : MPEG-4 Visual
Format profile                           : Advanced Simple@L5
Format settings, BVOP                    : Yes
Format settings, QPel                    : No
Format settings, GMC                     : No warppoints
Format settings, Matrix                  : Default (H.263)
Codec ID                                 : V_MS/VFW/FOURCC / XVID
Codec ID/Hint                            : XviD
Duration                                 : 2h 17mn
Bit rate                                 : 572 Kbps
Width                                    : 624 pixels
Height                                   : 256 pixels
Display aspect ratio                     : 2.40:1
Frame rate mode                          : Constant
Frame rate                               : 25.000 fps
Color space                              : YUV
Chroma subsampling                       : 4:2:0
Bit depth                                : 8 bits
Scan type                                : Progressive
Compression mode                         : Lossy
Bits/(Pixel*Frame)                       : 0.143
Stream size                              : 562 MiB (80%)
Writing library                          : XviD 64
Language                                 : English
Default                                  : Yes
Forced                                   : No

Audio
ID                                       : 2
Format                                   : MPEG Audio
Format version                           : Version 1
Format profile                           : Layer 3
Mode                                     : Joint stereo
Mode extension                           : MS Stereo
Muxing mode                              : Header stripping
Codec ID                                 : A_MPEG/L3
Codec ID/Hint                            : MP3
Duration                                 : 2h 17mn
Bit rate mode                            : Constant
Bit rate                                 : 128 Kbps
Channel(s)                               : 2 channels
Sampling rate                            : 44.1 KHz
Compression mode                         : Lossy
Stream size                              : 126 MiB (18%)
Language                                 : English
Default                                  : Yes
Forced                                   : No

Source:
credit to original movie ripper HELLRAZ0R (Thanks)

IMDB Info:

Bond's loyalty to M is tested as her past comes back to haunt her. As MI6 comes under attack, 007 must track down and destroy the threat, no matter how personal the cost.

Director: Sam Mendes
Writers: Neal Purvis, Robert Wade,
Stars: Daniel Craig, Javier Bardem and Naomie Harris

Genres: Action | Adventure | Crime | Thriller
 
http://www.imdb.com/title/tt1074638/

Screen Shot:
 
http://www.shotpix.com/images/31360305912165587664.png 
http://www.shotpix.com/images/44068715706017139268.png 
http://www.shotpix.com/images/30430723022164700971.png 
http://www.shotpix.com/images/68821442871302979436.png 
http://www.shotpix.com/images/08468954674571558389.png 
http://www.shotpix.com/images/21552225698242202205.png 
http://www.shotpix.com/images/15988044180599636410.png 
http://www.shotpix.com/images/17325882052600724998.png